<svg width="275" height="350" viewBox="0 0 275 350" fill="none" xmlns="http://www.w3.org/2000/svg">
<g clip-path="url(#clip0)">
<rect width="275" height="350" rx="13" fill="#EBF1F5"/>
<path opacity="0.5" d="M36.7043 31.3297C28.6537 31.3297 21.7225 33.6191 15.9332 38.0471H12.392L14.1137 15.6182H65.9709H66.4709V15.1182V-4.70626V-5.20626H65.9709H-4.66146H-5.12318L-5.15987 -4.746L-10.2284 58.8233L-10.2714 59.363H-9.72998H12.1791H12.4309L12.5808 59.1608C16.7248 53.5708 22.6155 50.8434 30.3277 50.8434C36.0248 50.8434 40.7506 52.6503 44.0522 56.0182C47.3543 59.3865 49.2843 64.3699 49.2843 70.8232C49.2843 76.8624 47.3976 81.8087 44.09 85.2422C40.7843 88.6738 36.0163 90.6392 30.1642 90.6392C24.6864 90.6392 20.3565 89.2675 17.2416 86.6598C14.1304 84.0552 12.1729 80.1685 11.5308 75.0211L11.4761 74.583H11.0346H-12.5095H-13.0402L-13.0086 75.1127C-12.3474 86.2104 -8.20774 95.1848 -0.416977 102.161C7.38185 109.145 17.9762 112.61 30.9817 112.61C43.3562 112.61 53.623 108.803 61.7394 101.002C69.863 93.1941 73.8285 82.8987 73.8285 70.4955C73.8285 59.0817 70.358 49.6105 63.2224 42.2939C56.0945 34.9852 47.2984 31.3297 36.7043 31.3297ZM100.907 7.58897L100.907 7.58959C92.6248 17.5481 88.5284 32.5944 88.5284 52.6371C88.5284 72.5182 92.6257 87.5613 100.904 97.6816L100.904 97.6816L100.91 97.6884C109.347 107.635 120.279 112.61 133.828 112.61C147.375 112.61 158.31 107.636 166.585 97.6853C175.03 87.5636 179.127 72.5179 179.127 52.6371C179.127 32.5968 175.031 17.5488 166.585 7.58887C158.309 -2.52561 147.374 -7.5 133.828 -7.5C120.279 -7.5 109.345 -2.52385 100.907 7.58897ZM-1.12135 154.478L-1.12187 154.479C-9.40355 164.438 -13.5 179.484 -13.5 199.527C-13.5 219.408 -9.40269 234.451 -1.12451 244.571L-1.11873 244.578C7.31844 254.525 18.251 259.5 31.7992 259.5C45.3463 259.5 56.2812 254.525 64.5563 244.575C73.0013 234.453 77.0985 219.407 77.0985 199.527C77.0985 179.486 73.0031 164.438 64.5564 154.479C56.2812 144.364 45.3457 139.39 31.7992 139.39C18.2503 139.39 7.31622 144.366 -1.12135 154.478ZM206.608 7.58897L206.607 7.58959C198.326 17.5481 194.229 32.5944 194.229 52.6371C194.229 72.5182 198.326 87.5613 206.605 97.6816L206.61 97.6884C215.048 107.635 225.98 112.61 239.528 112.61C253.076 112.61 264.011 107.635 272.286 97.6847C280.731 87.563 284.828 72.5174 284.828 52.6371C284.828 32.5975 280.732 17.5498 272.286 7.5899C264.011 -2.52528 253.075 -7.5 239.528 -7.5C225.979 -7.5 215.045 -2.52385 206.608 7.58897ZM133.828 90.6392C130.391 90.6392 127.407 89.8591 124.859 88.313C122.311 86.7663 120.171 84.4361 118.447 81.2937C114.993 74.9938 113.236 65.4694 113.236 52.6371C113.236 39.8051 114.992 30.239 118.448 23.8975C120.172 20.7342 122.312 18.3836 124.861 16.8219C127.409 15.261 130.392 14.4713 133.828 14.4713C137.305 14.4713 140.32 15.2615 142.89 16.8229C145.462 18.385 147.617 20.7357 149.351 23.8986C152.826 30.2395 154.583 39.8049 154.583 52.6371C154.583 65.4696 152.826 74.9933 149.352 81.2926C147.619 84.4346 145.463 86.765 142.892 88.312C140.321 89.8586 137.307 90.6392 133.828 90.6392ZM104.579 154.478L104.579 154.479C96.2972 164.438 92.2008 179.484 92.2008 199.527C92.2008 219.408 96.2981 234.451 104.576 244.571L104.582 244.578C113.019 254.525 123.952 259.5 137.5 259.5C151.047 259.5 161.982 254.525 170.257 244.575C178.702 234.453 182.799 219.407 182.799 199.527C182.799 179.486 178.704 164.438 170.257 154.478C161.982 144.364 151.046 139.39 137.5 139.39C123.951 139.39 113.017 144.366 104.579 154.478ZM210.28 154.478L210.28 154.479C201.998 164.438 197.902 179.484 197.902 199.527C197.902 219.408 201.999 234.451 210.277 244.571L210.283 244.578C218.72 254.525 229.653 259.5 243.201 259.5C256.748 259.5 267.683 254.525 275.958 244.575C284.403 234.453 288.5 219.407 288.5 199.527C288.5 179.487 284.405 164.439 275.959 154.479C267.683 144.364 256.748 139.39 243.201 139.39C229.652 139.39 218.718 144.366 210.28 154.478ZM239.528 90.6392C236.091 90.6392 233.108 89.8591 230.56 88.313C228.012 86.7663 225.871 84.4361 224.148 81.2937C220.693 74.9938 218.937 65.4694 218.937 52.6371C218.937 39.8051 220.693 30.239 224.149 23.8975C225.872 20.7342 228.013 18.3836 230.562 16.8219C233.11 15.261 236.093 14.4713 239.528 14.4713C243.006 14.4713 246.02 15.2615 248.591 16.8229C251.163 18.385 253.318 20.7357 255.052 23.8986C258.527 30.2395 260.284 39.8049 260.284 52.6371C260.284 65.4696 258.527 74.9933 255.052 81.2926C253.319 84.4346 251.164 86.765 248.593 88.312C246.022 89.8586 243.007 90.6392 239.528 90.6392ZM31.7992 237.529C28.3622 237.529 25.3787 236.749 22.8311 235.203C20.2824 233.656 18.1422 231.326 16.4189 228.183C12.9641 221.883 11.2076 212.359 11.2076 199.527C11.2076 186.695 12.9641 177.129 16.4196 170.787C18.1433 167.624 20.2841 165.273 22.8329 163.711C25.3805 162.151 28.3634 161.361 31.7992 161.361C35.277 161.361 38.2911 162.151 40.8618 163.712C43.4334 165.274 45.5891 167.625 47.3226 170.788C50.7979 177.129 52.5544 186.694 52.5544 199.527C52.5544 212.359 50.7978 221.883 47.3232 228.182C45.5902 231.324 43.4351 233.654 40.8636 235.202C38.2929 236.748 35.2782 237.529 31.7992 237.529ZM137.5 237.529C134.063 237.529 131.08 236.749 128.532 235.203C125.983 233.656 123.843 231.326 122.12 228.183C118.665 221.883 116.908 212.359 116.908 199.527C116.908 186.695 118.665 177.129 122.12 170.787C123.844 167.624 125.985 165.273 128.534 163.711C131.081 162.151 134.064 161.361 137.5 161.361C140.978 161.361 143.992 162.151 146.563 163.712C149.134 165.274 151.29 167.625 153.023 170.788C156.499 177.129 158.255 186.694 158.255 199.527C158.255 212.359 156.499 221.883 153.024 228.182C151.291 231.324 149.136 233.654 146.564 235.202C143.994 236.748 140.979 237.529 137.5 237.529ZM243.201 237.529C239.764 237.529 236.78 236.749 234.233 235.203C231.684 233.656 229.544 231.326 227.82 228.183C224.366 221.883 222.609 212.359 222.609 199.527C222.609 186.695 224.366 177.129 227.821 170.787C229.545 167.624 231.686 165.273 234.234 163.711C236.782 162.151 239.765 161.361 243.201 161.361C246.679 161.361 249.693 162.151 252.263 163.712C254.835 165.274 256.991 167.625 258.724 170.788C262.199 177.129 263.956 186.694 263.956 199.527C263.956 212.359 262.199 221.883 258.725 228.182C256.992 231.324 254.837 233.654 252.265 235.202C249.694 236.748 246.68 237.529 243.201 237.529Z" stroke="#13B17C"/>
</g>
<defs>
<clipPath id="clip0">
<rect width="275" height="350" rx="13" fill="white"/>
</clipPath>
</defs>
</svg>
